# Blender v2.75 (sub 0) OBJ File: 'balloon.blend'
# www.blender.org
mtllib balloon.mtl
o Cube_Cube.003
v -0.158511 0.571246 0.164441
v -0.158511 1.044177 0.164441
v -0.158511 0.571246 -0.122786
v -0.158511 1.044177 -0.122786
v 0.147345 0.571246 0.164441
v 0.147345 1.044177 0.164441
v 0.147345 0.571246 -0.122786
v 0.147345 1.044177 -0.122786
vn -1.000000 0.000000 0.000000
vn 0.000000 0.000000 -1.000000
vn 1.000000 0.000000 0.000000
vn 0.000000 0.000000 1.000000
vn 0.000000 -1.000000 0.000000
vn 0.000000 1.000000 0.000000
usemtl Material.001
s off
f 2//1 4//1 3//1 1//1
f 4//2 8//2 7//2 3//2
f 8//3 6//3 5//3 7//3
f 6//4 2//4 1//4 5//4
f 1//5 3//5 7//5 5//5
f 6//6 8//6 4//6 2//6
o Cube.001_Cube.006
v -0.198983 0.602506 0.219513
v -0.198983 1.006925 0.219513
v -0.198983 0.602506 -0.182430
v -0.198983 1.006925 -0.182430
v 0.188353 0.602506 0.219513
v 0.188353 1.006925 0.219513
v 0.188353 0.602506 -0.182430
v 0.188353 1.006925 -0.182430
vn -1.000000 0.000000 0.000000
vn 0.000000 0.000000 -1.000000
vn 1.000000 0.000000 0.000000
vn 0.000000 0.000000 1.000000
vn 0.000000 -1.000000 0.000000
vn 0.000000 1.000000 0.000000
usemtl Material.002
s off
f 10//7 12//7 11//7 9//7
f 12//8 16//8 15//8 11//8
f 16//9 14//9 13//9 15//9
f 14//10 10//10 9//10 13//10
f 9//11 11//11 15//11 13//11
f 14//12 16//12 12//12 10//12
o Rope_Cube
v 0.031278 0.022651 -0.030468
v 0.031993 0.021351 0.038448
v -0.044880 0.020702 0.039233
v -0.045595 0.022002 -0.029683
v 0.025715 0.696720 -0.017693
v 0.026429 0.695420 0.051223
v -0.050444 0.694770 0.052008
v -0.051159 0.696070 -0.016908
vn 0.008300 -0.999800 -0.018900
vn -0.008300 0.999800 0.018900
vn 0.999900 0.008400 -0.010200
vn 0.010400 -0.018900 0.999800
vn -0.999900 -0.008400 0.010200
vn -0.010400 0.018900 -0.999800
usemtl Material
s off
f 17//13 18//13 19//13 20//13
f 21//14 24//14 23//14 22//14
f 17//15 21//15 22//15 18//15
f 18//16 22//16 23//16 19//16
f 19//17 23//17 24//17 20//17
f 21//18 17//18 20//18 24//18
